# Blender 4.4.3
# www.blender.org
mtllib Rutsche.mtl
o Cube.002
v -3.077676 5.252745 0.641547
v -3.077676 5.596774 0.641547
v -3.077676 5.252745 -0.641547
v -3.077676 5.596774 -0.641547
v 2.041375 -0.172015 0.641547
v 2.041375 0.172015 0.641547
v 2.041375 -0.172015 -0.641547
v 2.041375 0.172015 -0.641547
v -3.077676 5.252745 0.925981
v -3.077676 5.596774 0.925981
v 2.041375 0.172015 0.925981
v 2.041375 -0.172015 0.925981
v 3.161830 0.172015 -0.641547
v 3.161830 -0.172015 -0.641547
v 3.161830 -0.172015 0.641547
v 3.161830 0.172015 0.641547
v 3.168012 0.174832 0.637970
v 3.160922 -0.172015 0.641547
v 3.172321 0.168370 0.922297
v 3.160922 -0.172015 0.925981
v 2.066520 0.495088 0.641547
v -3.052531 5.919847 0.641547
v 2.066520 0.495088 0.925981
v -3.052531 5.919847 0.925981
v 3.178976 0.492270 0.929558
v 3.174668 0.498732 0.645231
v -4.155046 5.252745 -0.641547
v -4.155046 5.252745 0.641547
v -4.155046 5.596774 0.641547
v -4.155046 5.596774 -0.641547
v -4.166728 5.262968 0.641547
v -4.166728 5.606997 0.641547
v -4.166728 5.262968 0.925981
v -4.166728 5.606997 0.925981
v -4.141583 5.930070 0.925981
v -4.141583 5.930070 0.641547
v -3.077676 5.252745 -0.641547
v -3.077676 5.596774 -0.641547
v -3.077676 5.252745 0.641547
v -3.077676 5.596774 0.641547
v 2.041375 -0.172015 -0.641547
v 2.041375 0.172015 -0.641547
v 2.041375 -0.172015 0.641547
v 2.041375 0.172015 0.641547
v -3.077676 5.252745 -0.925981
v -3.077676 5.596774 -0.925981
v 2.041375 0.172015 -0.925981
v 2.041375 -0.172015 -0.925981
v 3.161830 0.172015 0.641547
v 3.161830 -0.172015 0.641547
v 3.161830 -0.172015 -0.641547
v 3.161830 0.172015 -0.641547
v 3.168012 0.174832 -0.637970
v 3.160922 -0.172015 -0.641547
v 3.172321 0.168370 -0.922297
v 3.160922 -0.172015 -0.925981
v 2.066520 0.495088 -0.641547
v -3.052531 5.919847 -0.641547
v 2.066520 0.495088 -0.925981
v -3.052531 5.919847 -0.925981
v 3.178976 0.492270 -0.929558
v 3.174668 0.498732 -0.645231
v -4.155046 5.252745 0.641547
v -4.155046 5.252745 -0.641547
v -4.155046 5.596774 -0.641547
v -4.155046 5.596774 0.641547
v -4.166728 5.262968 -0.641547
v -4.166728 5.606997 -0.641547
v -4.166728 5.262968 -0.925981
v -4.166728 5.606997 -0.925981
v -4.141583 5.930070 -0.925981
v -4.141583 5.930070 -0.641547
vn -0.0000 1.0000 -0.0000
vn -0.0000 -0.0000 -1.0000
vn -0.0000 -0.0000 1.0000
vn -0.0094 -1.0000 -0.0000
vn -0.7273 -0.6863 -0.0000
vn 0.7273 0.6863 -0.0000
vn -0.0000 0.0112 -0.9999
vn 0.0016 0.0054 1.0000
vn 1.0000 -0.0000 -0.0000
vn -0.0000 -1.0000 -0.0000
vn 0.9996 -0.0270 -0.0079
vn -0.0016 -0.0052 -1.0000
vn 0.9997 -0.0202 -0.0156
vn -0.0004 0.9999 0.0114
vn -0.0000 -0.0112 0.9999
vn -1.0000 -0.0000 -0.0000
vn -0.9970 0.0776 -0.0000
vn 0.0094 1.0000 -0.0000
vn -0.0000 0.0112 0.9999
vn 0.0016 0.0054 -1.0000
vn 0.9996 -0.0270 0.0079
vn -0.0016 -0.0052 1.0000
vn 0.9997 -0.0202 0.0156
vn -0.0004 0.9999 -0.0114
vn -0.0000 -0.0112 -0.9999
vt 0.875000 0.750000
vt 0.875000 0.500000
vt 0.375000 0.250000
vt 0.625000 0.250000
vt 0.625000 0.500000
vt 0.375000 0.500000
vt 0.625000 0.750000
vt 0.375000 0.750000
vt 0.125000 0.750000
vt 0.125000 0.500000
vt 0.625000 1.000000
vt 0.375000 1.000000
vt 0.375000 0.000000
vt 0.625000 0.000000
s 0
f 2/1/1 4/2/1 30/2/1 29/1/1
f 3/3/2 4/4/2 8/5/2 7/6/2
f 6/7/3 5/8/3 15/8/3 16/7/3
f 1/9/4 9/9/4 33/9/4 31/9/4
f 3/10/5 7/6/5 5/8/5 1/9/5
f 8/5/6 4/2/6 2/1/6 6/7/6
f 12/8/3 11/7/3 10/11/3 9/12/3
f 1/9/5 5/8/5 12/8/5 9/9/5
f 17/7/7 6/7/7 21/7/7 26/7/7
f 11/7/8 12/8/8 20/8/8 19/7/8
f 14/6/9 13/5/9 16/7/9 15/8/9
f 5/8/10 7/6/10 14/6/10 15/8/10
f 8/5/1 6/7/1 16/7/1 13/5/1
f 7/6/2 8/5/2 13/5/2 14/6/2
f 18/8/11 17/7/11 19/7/11 20/8/11
f 5/8/12 6/7/12 17/7/12 18/8/12
f 12/8/10 5/8/10 18/8/10 20/8/10
f 19/7/13 17/7/13 26/7/13 25/7/13
f 21/7/6 22/1/6 24/1/6 23/7/6
f 21/7/14 23/7/14 25/7/14 26/7/14
f 22/1/2 2/1/2 32/1/2 36/1/2
f 10/11/3 11/7/3 23/7/3 24/11/3
f 11/7/15 19/7/15 25/7/15 23/7/15
f 6/7/2 2/1/2 22/1/2 21/7/2
f 28/13/16 29/14/16 30/4/16 27/3/16
f 3/10/10 1/9/10 28/9/10 27/10/10
f 4/4/2 3/3/2 27/3/2 30/4/2
f 1/13/3 2/14/3 29/14/3 28/13/3
f 32/14/16 31/13/16 33/13/16 34/14/16
f 32/14/17 34/14/17 35/14/17 36/14/17
f 24/1/18 22/1/18 36/1/18 35/1/18
f 10/11/3 24/11/3 35/11/3 34/11/3
f 2/14/2 1/13/2 31/13/2 32/14/2
f 9/12/3 10/11/3 34/11/3 33/12/3
f 38/1/1 65/1/1 66/2/1 40/2/1
f 39/3/3 43/6/3 44/5/3 40/4/3
f 42/7/2 52/7/2 51/8/2 41/8/2
f 37/9/4 67/9/4 69/9/4 45/9/4
f 39/10/5 37/9/5 41/8/5 43/6/5
f 44/5/6 42/7/6 38/1/6 40/2/6
f 48/8/2 45/12/2 46/11/2 47/7/2
f 37/9/5 45/9/5 48/8/5 41/8/5
f 53/7/19 62/7/19 57/7/19 42/7/19
f 47/7/20 55/7/20 56/8/20 48/8/20
f 50/6/9 51/8/9 52/7/9 49/5/9
f 41/8/10 51/8/10 50/6/10 43/6/10
f 44/5/1 49/5/1 52/7/1 42/7/1
f 43/6/3 50/6/3 49/5/3 44/5/3
f 54/8/21 56/8/21 55/7/21 53/7/21
f 41/8/22 54/8/22 53/7/22 42/7/22
f 48/8/10 56/8/10 54/8/10 41/8/10
f 55/7/23 61/7/23 62/7/23 53/7/23
f 57/7/6 59/7/6 60/1/6 58/1/6
f 57/7/24 62/7/24 61/7/24 59/7/24
f 58/1/3 72/1/3 68/1/3 38/1/3
f 46/11/2 60/11/2 59/7/2 47/7/2
f 47/7/25 59/7/25 61/7/25 55/7/25
f 42/7/3 57/7/3 58/1/3 38/1/3
f 64/13/16 63/3/16 66/4/16 65/14/16
f 39/10/10 63/10/10 64/9/10 37/9/10
f 40/4/3 66/4/3 63/3/3 39/3/3
f 37/13/2 64/13/2 65/14/2 38/14/2
f 68/14/16 70/14/16 69/13/16 67/13/16
f 68/14/17 72/14/17 71/14/17 70/14/17
f 60/1/18 71/1/18 72/1/18 58/1/18
f 46/11/2 70/11/2 71/11/2 60/11/2
f 38/14/3 68/14/3 67/13/3 37/13/3
f 45/12/2 69/12/2 70/11/2 46/11/2
