# Blender 4.4.3
# www.blender.org
mtllib Surf-Board.mtl
o Cube
v -0.229793 -1.389562 0.999967
v -0.229475 1.283199 1.020691
v -0.229793 -1.390946 -1.000033
v -0.229475 1.283199 -1.020091
v 0.229156 -1.389562 0.999967
v 0.229475 1.283199 1.020691
v 0.229156 -1.390946 -1.000033
v 0.229475 1.283199 -1.020091
v -0.230677 -2.474186 -0.851594
v -0.231602 -3.606466 -0.428795
v -0.232029 -4.130157 0.023193
v -0.232029 -4.130157 0.054279
v -0.231602 -3.606170 0.428348
v -0.230677 -2.472973 0.864619
v -0.229475 2.069133 0.857082
v -0.229475 2.890881 0.444689
v -0.229475 2.965992 0.142857
v -0.229475 2.965992 -0.142857
v -0.229475 2.890881 -0.444222
v -0.229475 2.069133 -0.852940
v 0.228272 -2.472973 0.864619
v 0.227348 -3.606170 0.428348
v 0.226920 -4.130157 0.054279
v 0.226920 -4.130157 0.023193
v 0.227348 -3.606466 -0.428795
v 0.228272 -2.474186 -0.851594
v 0.229475 2.069133 -0.852940
v 0.229475 2.890881 -0.444222
v 0.229475 2.965992 -0.142857
v 0.229475 2.965992 0.142857
v 0.229475 2.890881 0.444689
v 0.229475 2.069133 0.857082
v -0.229611 -0.773480 0.999986
v -0.229475 -0.200000 1.000000
v -0.229475 0.200000 1.000000
v -0.229475 0.721242 1.000000
v -0.229475 0.721242 -1.000000
v -0.229475 0.200000 -1.000000
v -0.229475 -0.200000 -1.000000
v -0.229611 -0.774451 -1.000014
v 0.229475 0.721242 -1.000000
v 0.229475 0.200000 -1.000000
v 0.229475 -0.200000 -1.000000
v 0.229338 -0.774451 -1.000014
v 0.229475 0.721242 1.000000
v 0.229475 0.200000 1.000000
v 0.229475 -0.200000 1.000000
v 0.229338 -0.773480 0.999986
v 0.229475 1.289594 -0.742733
v 0.229475 0.271464 -0.714286
v 0.229394 -0.309630 -0.714294
v 0.228699 -1.564236 -0.725237
v 0.229475 1.915743 -0.538180
v 0.229475 0.499691 -0.428571
v 0.229138 -0.633921 -0.428607
v 0.227995 -2.425844 -0.542369
v 0.229475 2.188446 -0.196408
v 0.229475 0.614600 -0.142857
v 0.229008 -0.794652 -0.142906
v 0.227688 -2.799325 -0.185375
v 0.229475 2.188446 0.188385
v 0.229475 0.614600 0.142857
v 0.229008 -0.794652 0.142808
v 0.227688 -2.799325 0.184106
v 0.229475 1.915743 0.541454
v 0.229475 0.499691 0.428571
v 0.229138 -0.633437 0.428536
v 0.227995 -2.425286 0.553066
v 0.229475 1.289594 0.743582
v 0.229475 0.271464 0.714286
v 0.229394 -0.309112 0.714277
v 0.228699 -1.563010 0.726125
v -0.229475 1.289594 0.743582
v -0.229475 0.271464 0.714286
v -0.229555 -0.309112 0.714277
v -0.230250 -1.563010 0.726125
v -0.229475 1.915743 0.541454
v -0.229475 0.499691 0.428571
v -0.229812 -0.633437 0.428536
v -0.230955 -2.425286 0.553066
v -0.229475 2.188446 0.188385
v -0.229475 0.614600 0.142857
v -0.229941 -0.794652 0.142808
v -0.231261 -2.799325 0.184106
v -0.229475 2.188446 -0.196408
v -0.229475 0.614600 -0.142857
v -0.229941 -0.794652 -0.142906
v -0.231261 -2.799325 -0.185375
v -0.229475 1.915743 -0.538180
v -0.229475 0.499691 -0.428571
v -0.229812 -0.633921 -0.428607
v -0.230955 -2.425844 -0.542369
v -0.229475 1.289594 -0.742733
v -0.229475 0.271464 -0.714286
v -0.229555 -0.309630 -0.714294
v -0.230250 -1.564236 -0.725237
v 0.500413 3.341414 0.142857
v 0.500413 3.266304 0.444689
v 0.500413 2.563869 0.188385
v 0.500413 2.291166 0.541454
v 0.515059 3.291182 -0.444222
v 0.515059 3.366293 -0.142857
v 0.515059 2.316044 -0.538180
v 0.515059 2.588747 -0.196408
vn -1.0000 -0.0000 -0.0000
vn -0.0000 -0.0357 -0.9994
vn 1.0000 -0.0000 -0.0000
vn -0.0000 -0.0368 0.9993
vn -0.0000 -0.1240 0.9923
vn -0.0000 0.2038 0.9790
vn -0.0000 0.2080 -0.9781
vn -0.0000 0.4453 -0.8954
vn -0.0000 0.9703 -0.2418
vn -0.0000 1.0000 -0.0000
vn -0.0000 0.9704 0.2415
vn -0.0000 0.4485 0.8938
vn -0.0000 -0.1358 -0.9907
vn -0.0000 -0.3498 -0.9368
vn -0.0000 -0.6534 -0.7570
vn -0.0000 -1.0000 -0.0000
vn -0.0000 -0.5810 0.8139
vn -0.0000 -0.3593 0.9332
vn -0.8057 0.5748 -0.1433
vn -0.8024 0.5791 0.1441
vn -1.0000 0.0005 -0.0010
vn -1.0000 0.0006 -0.0005
vn -1.0000 0.0002 -0.0004
vn -1.0000 0.0005 -0.0003
vn -1.0000 0.0007 -0.0001
vn -1.0000 0.0003 -0.0002
vn -1.0000 0.0006 -0.0000
vn -1.0000 0.0007 -0.0000
vn -1.0000 0.0003 -0.0000
vn -1.0000 0.0005 0.0004
vn -1.0000 0.0007 0.0001
vn -1.0000 0.0003 0.0002
vn -1.0000 0.0005 0.0010
vn -1.0000 0.0006 0.0005
vn -1.0000 0.0002 0.0004
vn -1.0000 0.0005 0.0013
vn -1.0000 0.0005 0.0005
vn -1.0000 0.0001 0.0001
vn 1.0000 -0.0005 -0.0010
vn 1.0000 -0.0006 -0.0005
vn 1.0000 -0.0002 -0.0004
vn 1.0000 -0.0005 -0.0004
vn 1.0000 -0.0007 -0.0001
vn 1.0000 -0.0003 -0.0002
vn 1.0000 -0.0006 -0.0000
vn 1.0000 -0.0007 -0.0000
vn 1.0000 -0.0003 -0.0000
vn 1.0000 -0.0005 0.0003
vn 1.0000 -0.0007 0.0001
vn 1.0000 -0.0003 0.0002
vn 1.0000 -0.0005 0.0010
vn 1.0000 -0.0006 0.0005
vn 1.0000 -0.0002 0.0004
vn 1.0000 -0.0005 0.0013
vn 1.0000 -0.0005 0.0005
vn 1.0000 -0.0001 0.0001
vn -0.0000 -0.0000 1.0000
vn 1.0000 -0.0005 -0.0013
vn 1.0000 -0.0005 -0.0005
vn 1.0000 -0.0001 -0.0001
vn -0.0000 -0.0000 -1.0000
vn -1.0000 0.0005 -0.0013
vn -1.0000 0.0005 -0.0005
vn -1.0000 0.0001 -0.0001
vn 0.7389 -0.5333 -0.4119
vn -0.1356 0.0978 0.9859
vn 0.0807 -0.0583 -0.9950
vn 0.7386 -0.5269 0.4205
vn 0.0959 -0.0684 0.9930
vn -0.1332 0.0951 -0.9865
vt 0.575000 0.214286
vt 0.625000 0.214286
vt 0.625000 0.250000
vt 0.575000 0.250000
vt 0.625000 0.500000
vt 0.575000 0.500000
vt 0.575000 0.714286
vt 0.625000 0.714286
vt 0.625000 0.750000
vt 0.575000 0.750000
vt 0.625000 1.000000
vt 0.575000 1.000000
vt 0.125000 0.714286
vt 0.375000 0.714286
vt 0.375000 0.750000
vt 0.125000 0.750000
vt 0.875000 0.714286
vt 0.875000 0.750000
vt 0.875000 0.500000
vt 0.875000 0.535714
vt 0.625000 0.535714
vt 0.875000 0.571429
vt 0.625000 0.571429
vt 0.875000 0.607143
vt 0.625000 0.607143
vt 0.875000 0.642857
vt 0.625000 0.642857
vt 0.875000 0.678571
vt 0.625000 0.678571
vt 0.125000 0.500000
vt 0.375000 0.500000
vt 0.375000 0.535714
vt 0.125000 0.535714
vt 0.375000 0.571429
vt 0.125000 0.571429
vt 0.375000 0.607143
vt 0.125000 0.607143
vt 0.375000 0.642857
vt 0.125000 0.642857
vt 0.375000 0.678571
vt 0.125000 0.678571
vt 0.575000 0.535714
vt 0.575000 0.571429
vt 0.575000 0.607143
vt 0.575000 0.642857
vt 0.575000 0.678571
vt 0.575000 0.000000
vt 0.625000 0.000000
vt 0.625000 0.035714
vt 0.575000 0.035714
vt 0.625000 0.071429
vt 0.575000 0.071429
vt 0.625000 0.107143
vt 0.575000 0.107143
vt 0.625000 0.142857
vt 0.575000 0.142857
vt 0.625000 0.178571
vt 0.575000 0.178571
vt 0.375000 0.178571
vt 0.425000 0.178571
vt 0.425000 0.214286
vt 0.375000 0.214286
vt 0.475000 0.178571
vt 0.475000 0.214286
vt 0.525000 0.178571
vt 0.525000 0.214286
vt 0.375000 0.142857
vt 0.425000 0.142857
vt 0.475000 0.142857
vt 0.525000 0.142857
vt 0.375000 0.107143
vt 0.425000 0.107143
vt 0.475000 0.107143
vt 0.525000 0.107143
vt 0.375000 0.071429
vt 0.425000 0.071429
vt 0.475000 0.071429
vt 0.525000 0.071429
vt 0.375000 0.035714
vt 0.425000 0.035714
vt 0.475000 0.035714
vt 0.525000 0.035714
vt 0.375000 0.000000
vt 0.425000 0.000000
vt 0.475000 0.000000
vt 0.525000 0.000000
vt 0.425000 0.678571
vt 0.425000 0.714286
vt 0.475000 0.678571
vt 0.475000 0.714286
vt 0.525000 0.678571
vt 0.525000 0.714286
vt 0.425000 0.642857
vt 0.475000 0.642857
vt 0.525000 0.642857
vt 0.425000 0.607143
vt 0.475000 0.607143
vt 0.525000 0.607143
vt 0.425000 0.571429
vt 0.475000 0.571429
vt 0.525000 0.571429
vt 0.425000 0.535714
vt 0.475000 0.535714
vt 0.525000 0.535714
vt 0.425000 0.500000
vt 0.475000 0.500000
vt 0.525000 0.500000
vt 0.425000 0.750000
vt 0.425000 1.000000
vt 0.375000 1.000000
vt 0.475000 0.750000
vt 0.475000 1.000000
vt 0.525000 0.750000
vt 0.525000 1.000000
vt 0.375000 0.250000
vt 0.425000 0.250000
vt 0.475000 0.250000
vt 0.525000 0.250000
s 0
f 93/1/1 20/2/1 4/3/1 37/4/1
f 37/4/2 4/3/2 8/5/2 41/6/2
f 69/7/3 32/8/3 6/9/3 45/10/3
f 45/10/4 6/9/4 2/11/4 36/12/4
f 14/13/5 21/14/5 5/15/5 1/16/5
f 32/8/6 15/17/6 2/18/6 6/9/6
f 8/5/7 4/19/7 20/20/7 27/21/7
f 27/21/8 20/20/8 19/22/8 28/23/8
f 28/23/9 19/22/9 18/24/9 29/25/9
f 29/25/10 18/24/10 17/26/10 30/27/10
f 30/27/11 17/26/11 16/28/11 31/29/11
f 31/29/12 16/28/12 15/17/12 32/8/12
f 3/30/13 7/31/13 26/32/13 9/33/13
f 9/33/14 26/32/14 25/34/14 10/35/14
f 10/35/15 25/34/15 24/36/15 11/37/15
f 11/37/16 24/36/16 23/38/16 12/39/16
f 12/39/17 23/38/17 22/40/17 13/41/17
f 13/41/18 22/40/18 21/14/18 14/13/18
f 41/6/3 8/5/3 27/21/3 49/42/3
f 49/42/3 27/21/3 28/23/3 53/43/3
f 28/23/19 29/25/19 102/25/19 101/23/19
f 57/44/3 29/25/3 30/27/3 61/45/3
f 30/27/20 31/29/20 98/29/20 97/27/20
f 65/46/3 31/29/3 32/8/3 69/7/3
f 36/47/1 2/48/1 15/49/1 73/50/1
f 73/50/1 15/49/1 16/51/1 77/52/1
f 77/52/1 16/51/1 17/53/1 81/54/1
f 81/54/1 17/53/1 18/55/1 85/56/1
f 85/56/1 18/55/1 19/57/1 89/58/1
f 89/58/1 19/57/1 20/2/1 93/1/1
f 10/59/21 92/60/21 96/61/21 9/62/21
f 92/60/22 91/63/22 95/64/22 96/61/22
f 91/63/23 90/65/23 94/66/23 95/64/23
f 90/65/1 89/58/1 93/1/1 94/66/1
f 11/67/24 88/68/24 92/60/24 10/59/24
f 88/68/25 87/69/25 91/63/25 92/60/25
f 87/69/26 86/70/26 90/65/26 91/63/26
f 86/70/1 85/56/1 89/58/1 90/65/1
f 12/71/27 84/72/27 88/68/27 11/67/27
f 84/72/28 83/73/28 87/69/28 88/68/28
f 83/73/29 82/74/29 86/70/29 87/69/29
f 82/74/1 81/54/1 85/56/1 86/70/1
f 13/75/30 80/76/30 84/72/30 12/71/30
f 80/76/31 79/77/31 83/73/31 84/72/31
f 79/77/32 78/78/32 82/74/32 83/73/32
f 78/78/1 77/52/1 81/54/1 82/74/1
f 14/79/33 76/80/33 80/76/33 13/75/33
f 76/80/34 75/81/34 79/77/34 80/76/34
f 75/81/35 74/82/35 78/78/35 79/77/35
f 74/82/1 73/50/1 77/52/1 78/78/1
f 1/83/36 33/84/36 76/80/36 14/79/36
f 33/84/37 34/85/37 75/81/37 76/80/37
f 34/85/38 35/86/38 74/82/38 75/81/38
f 35/86/1 36/47/1 73/50/1 74/82/1
f 22/40/39 68/87/39 72/88/39 21/14/39
f 68/87/40 67/89/40 71/90/40 72/88/40
f 67/89/41 66/91/41 70/92/41 71/90/41
f 66/91/3 65/46/3 69/7/3 70/92/3
f 23/38/42 64/93/42 68/87/42 22/40/42
f 64/93/43 63/94/43 67/89/43 68/87/43
f 63/94/44 62/95/44 66/91/44 67/89/44
f 62/95/3 61/45/3 65/46/3 66/91/3
f 24/36/45 60/96/45 64/93/45 23/38/45
f 60/96/46 59/97/46 63/94/46 64/93/46
f 59/97/47 58/98/47 62/95/47 63/94/47
f 58/98/3 57/44/3 61/45/3 62/95/3
f 25/34/48 56/99/48 60/96/48 24/36/48
f 56/99/49 55/100/49 59/97/49 60/96/49
f 55/100/50 54/101/50 58/98/50 59/97/50
f 54/101/3 53/43/3 57/44/3 58/98/3
f 26/32/51 52/102/51 56/99/51 25/34/51
f 52/102/52 51/103/52 55/100/52 56/99/52
f 51/103/53 50/104/53 54/101/53 55/100/53
f 50/104/3 49/42/3 53/43/3 54/101/3
f 7/31/54 44/105/54 52/102/54 26/32/54
f 44/105/55 43/106/55 51/103/55 52/102/55
f 43/106/56 42/107/56 50/104/56 51/103/56
f 42/107/3 41/6/3 49/42/3 50/104/3
f 5/15/57 48/108/57 33/109/57 1/110/57
f 48/108/57 47/111/57 34/112/57 33/109/57
f 47/111/57 46/113/57 35/114/57 34/112/57
f 46/113/57 45/10/57 36/12/57 35/114/57
f 21/14/58 72/88/58 48/108/58 5/15/58
f 72/88/59 71/90/59 47/111/59 48/108/59
f 71/90/60 70/92/60 46/113/60 47/111/60
f 70/92/3 69/7/3 45/10/3 46/113/3
f 3/115/61 40/116/61 44/105/61 7/31/61
f 40/116/61 39/117/61 43/106/61 44/105/61
f 39/117/61 38/118/61 42/107/61 43/106/61
f 38/118/61 37/4/61 41/6/61 42/107/61
f 9/62/62 96/61/62 40/116/62 3/115/62
f 96/61/63 95/64/63 39/117/63 40/116/63
f 95/64/64 94/66/64 38/118/64 39/117/64
f 94/66/1 93/1/1 37/4/1 38/118/1
f 99/45/3 97/27/3 98/29/3 100/46/3
f 65/46/65 61/45/65 99/45/65 100/46/65
f 31/29/66 65/46/66 100/46/66 98/29/66
f 61/45/67 30/27/67 97/27/67 99/45/67
f 103/43/3 101/23/3 102/25/3 104/44/3
f 57/44/68 53/43/68 103/43/68 104/44/68
f 29/25/69 57/44/69 104/44/69 102/25/69
f 53/43/70 28/23/70 101/23/70 103/43/70
